<svg xmlns="http://www.w3.org/2000/svg" viewBox="0 0 512 512">
  <!--! Font Awesome Pro 6.4.0 by @fontawesome - https://fontawesome.com License - https://fontawesome.com/license (Commercial License) Copyright 2023 Fonticons, Inc.-->
  <path d="m266 48-33 26c-6 4-9 10-9 17v9a12 12 0 0 0 19 10l42-28 7-2h1a11 11 0 0 1 8 19l-20 20c-6 6-13 10-21 13l-26 9c-6 2-10 7-10 13 0 4-1 8-4 10l-18 18c-6 7-10 15-10 24v4c0 17 14 30 30 30 11 0 21-6 26-16l4-8c3-5 8-8 13-8 4 0 9 2 11 6l17 22c2 2 5 4 9 4 8 0 14-9 10-16l-1-3c-4-7 0-15 7-18l21-7c8-2 13-9 13-17 0-11 8-19 19-19h29c9 0 16 7 16 16s-7 16-16 16h-21c-7 0-14 3-19 8l-5 5c-2 2-3 5-3 8 0 6 5 11 11 11h12c6 0 11 2 16 7l6 6c2 2 3 4 3 7s-1 5-3 7l-7 7c-4 4-6 9-6 14s2 10 6 14l18 18c10 10 24 16 39 16h7A209 209 0 0 0 266 48zm172 308c-3-2-8-4-13-4-6 0-11-2-16-7l-13-13c-8-8-18-12-29-12-10 0-19-3-26-10l-27-23a64 64 0 0 0-42-15h-21c-12 0-25 4-35 11l-27 18a64 64 0 0 0-29 53v4c0 17 7 33 19 45l16 16c8 8 20 13 32 13h21c13 0 24 11 24 24l1 7c71-5 133-47 165-107zM0 256a256 256 0 1 1 512 0 256 256 0 1 1-512 0zm187-155c-6-7-16-7-22 0l-32 32c-6 6-6 16 0 22s16 6 22 0l32-32c7-6 7-16 0-22z"/>
</svg>
